<?xml version="1.0" encoding="UTF-8" standalone="no"?>
<svg
   height="128"
   version="1.1"
   width="100.17392"
   id="svg4"
   xmlns="http://www.w3.org/2000/svg"
   xmlns:svg="http://www.w3.org/2000/svg">
  <defs
     id="defs4" />
  <g
     transform="matrix(5.5652174,0,0,5.5652174,-16.695652,-5728.8348)"
     id="g4">
    <path
       d="m 5,1030.4 c -1.1046,0 -2,0.9 -2,2 v 18 c 0,1.1 0.8954,2 2,2 h 14 c 1.105,0 2,-0.9 2,-2 v -14 l -6,-6 z"
       fill="#95a5a6"
       id="path1" />
    <path
       d="m 5,1029.4 c -1.1046,0 -2,0.9 -2,2 v 18 c 0,1.1 0.8954,2 2,2 h 14 c 1.105,0 2,-0.9 2,-2 v -14 l -6,-6 z"
       fill="#bdc3c7"
       id="path2" />
    <g
       fill="#3498db"
       id="g3">
      <path
         d="m 16.996,1032.9436 v 8.8 c 0,1.8759 -5,1.9089 -5,0 0,-1.4882 2.423309,-1.5 2.5,-1.5 0.547,0 1.047,0.1 1.5,0.3 v -4.2 l -5.9999,1.8 v 5.6 c 0,1.705 -5.0347712,1.9406 -5,0 0.025487,-1.4224 2.0572341,-1.5 2.5,-1.5 0.5469,0 1.0469,0.1 1.5,0.3 v -7.6 c 0,-0.1951 0.1952637,-0.6038 0.5312,-0.7 l 6.4997,-2 h 0.219 c 0.71332,0 0.75,0.5806 0.75,0.7"
         fill="#3498db"
         id="path3"
         style="fill:#c49f0c;fill-opacity:1" />
    </g>
    <path
       d="m 21,1035.4 -6,-6 v 4 c 0,1.1 0.895,2 2,2 z"
       fill="#95a5a6"
       id="path4" />
  </g>
  <path
     d="M 15.900233,115.28465 H 11.926895 V 96.244621 h 10.906681 v 3.306671 h -6.933343 v 4.906678 h 6.453342 v 3.30667 h -6.453342 z m 16.186675,0 V 96.244621 h 4.026672 v 15.706689 h 7.733343 v 3.33334 z m 32.240047,0 -1.386669,-4.53334 h -6.933342 l -1.386668,4.53334 h -4.346672 l 6.720008,-19.120029 h 4.93334 l 6.746675,19.120029 z m -3.733338,-12.34668 q -0.133334,-0.45334 -0.346667,-1.14667 -0.213334,-0.69334 -0.426668,-1.41334 -0.213333,-0.720001 -0.346667,-1.253335 -0.133333,0.533334 -0.373333,1.333335 -0.213334,0.77334 -0.426668,1.49334 -0.186667,0.69333 -0.293333,0.98667 l -1.360002,4.42667 h 4.960006 z m 23.546696,-3.600011 q -2.320003,0 -3.546671,1.733341 -1.226669,1.73333 -1.226669,4.74667 0,3.04 1.120002,4.72 1.146668,1.65334 3.653338,1.65334 1.173335,0 2.320004,-0.26667 1.17333,-0.26666 2.53334,-0.74666 v 3.38667 q -1.25334,0.50666 -2.48001,0.74666 -1.226666,0.24 -2.746668,0.24 -2.933337,0 -4.853339,-1.2 -1.893336,-1.22667 -2.800004,-3.41333 -0.906668,-2.21334 -0.906668,-5.14668 0,-2.88 1.040002,-5.09334 1.040001,-2.213336 3.013337,-3.466671 2.000002,-1.253335 4.880006,-1.253335 1.413335,0 2.826674,0.373334 1.44,0.346667 2.74667,0.960001 l -1.30667,3.280011 q -1.06667,-0.50667 -2.16,-0.880008 -1.066673,-0.373333 -2.106674,-0.373333 z"
     id="text1"
     style="font-weight:bold;font-size:26.6667px;line-height:2.8;font-family:'Noto Sans';-inkscape-font-specification:'Noto Sans, Bold';text-align:center;letter-spacing:5.52px;text-anchor:middle;fill:#95a5a6;stroke-width:3.02362;stroke-linecap:round;stroke-miterlimit:5.5"
     aria-label="FLAC" />
</svg>
