<?xml version="1.0" encoding="UTF-8" standalone="no"?>
<svg
   height="128"
   version="1.1"
   width="100.17392"
   id="svg4"
   xmlns="http://www.w3.org/2000/svg"
   xmlns:svg="http://www.w3.org/2000/svg">
  <defs
     id="defs4" />
  <path
     d="M 11.130435,5.5652174 C 4.983096,5.5652174 0,10.573913 0,16.695652 V 116.86957 C 0,122.99131 4.983096,128 11.130435,128 h 77.913042 c 6.14957,0 11.130443,-5.00869 11.130443,-11.13043 V 38.956521 L 66.782609,5.5652174 Z"
     fill="#95a5a6"
     id="path1"
     style="stroke-width:5.56522" />
  <path
     d="M 11.130435,0 C 4.983096,0 0,5.0086956 0,11.130434 V 111.30435 c 0,6.12174 4.983096,11.13043 11.130435,11.13043 h 77.913042 c 6.14957,0 11.130443,-5.00869 11.130443,-11.13043 V 33.391304 L 66.782609,0 Z"
     fill="#bdc3c7"
     id="path2"
     style="stroke-width:5.56522" />
  <path
     d="M 100.17392,33.391304 66.782609,0 v 22.260869 c 0,6.121739 4.98087,11.130435 11.130435,11.130435 z"
     fill="#95a5a6"
     id="path4"
     style="stroke-width:5.56522" />
  <g
     transform="matrix(2.1821998,0,0,2.1821998,23.900562,-2215.4168)"
     id="g4">
    <path
       d="M 22,12 C 22,17.523 17.523,22 12,22 6.4772,22 2,17.523 2,12 2,6.4772 6.4772,2 12,2 17.523,2 22,6.4772 22,12 Z"
       fill="#c0392b"
       transform="translate(0,1029.4)"
       id="path1-3" />
    <path
       d="M 22,12 C 22,17.523 17.523,22 12,22 6.4772,22 2,17.523 2,12 2,6.4772 6.4772,2 12,2 17.523,2 22,6.4772 22,12 Z"
       fill="#e74c3c"
       transform="translate(0,1028.4)"
       id="path2-7" />
    <path
       d="m 7.0503,1037.8 3.5357,3.6 -3.5357,3.5 1.4142,1.4 3.5355,-3.5 3.536,3.5 1.414,-1.4 -3.536,-3.5 3.536,-3.6 -1.414,-1.4 -3.536,3.5 -3.5355,-3.5 z"
       fill="#c0392b"
       id="path3" />
    <path
       d="m 7.0503,1036.8 3.5357,3.6 -3.5357,3.5 1.4142,1.4 3.5355,-3.5 3.536,3.5 1.414,-1.4 -3.536,-3.5 3.536,-3.6 -1.414,-1.4 -3.536,3.5 -3.5355,-3.5 z"
       fill="#ecf0f1"
       id="path4-8" />
  </g>
  <path
     d="M 20.030749,115.01803 H 10.677643 V 95.977971 h 9.353106 v 3.306676 h -5.916806 v 4.186683 h 5.507181 v 3.30667 h -5.507181 v 4.90668 h 5.916806 z m 9.361622,-19.040059 q 3.322515,0 4.892744,1.413337 1.592986,1.413337 1.592986,4.293342 0,1.30667 -0.432381,2.29334 -0.409626,0.96001 -1.115091,1.65334 -0.682709,0.66667 -1.479202,1.09334 l 4.778959,8.29336 h -3.823167 l -3.868681,-7.30669 h -1.843313 v 7.30669 H 24.658926 V 95.977971 Z m -0.250326,3.306676 h -1.04682 v 5.146683 h 1.115091 q 1.706771,0 2.434993,-0.66667 0.750979,-0.66667 0.750979,-1.97334 0,-1.36 -0.796493,-1.920005 -0.773737,-0.586668 -2.45775,-0.586668 z m 16.507311,-3.306676 q 3.322514,0 4.892743,1.413337 1.592986,1.413337 1.592986,4.293342 0,1.30667 -0.432382,2.29334 -0.409625,0.96001 -1.11509,1.65334 -0.682709,0.66667 -1.479202,1.09334 l 4.778959,8.29336 h -3.823167 l -3.868681,-7.30669 h -1.843313 v 7.30669 H 40.915911 V 95.977971 Z m -0.250327,3.306676 h -1.04682 v 5.146683 h 1.11509 q 1.706771,0 2.434994,-0.66667 0.750979,-0.66667 0.750979,-1.97334 0,-1.36 -0.796493,-1.920005 -0.773736,-0.586668 -2.45775,-0.586668 z m 26.520369,6.186683 q 0,2.96001 -0.842007,5.17335 -0.81925,2.18668 -2.526021,3.41334 -1.706771,1.22667 -4.369334,1.22667 -2.639805,0 -4.369334,-1.22667 -1.706771,-1.22666 -2.548778,-3.44001 -0.81925,-2.21333 -0.81925,-5.17335 0,-2.96 0.81925,-5.14668 0.842007,-2.18667 2.548778,-3.386673 1.729529,-1.22667 4.392091,-1.22667 2.639806,0 4.346577,1.22667 1.706771,1.200003 2.526021,3.413343 0.842007,2.18667 0.842007,5.14668 z m -11.856369,0 q 0,2.98668 0.978549,4.72001 0.978548,1.70667 3.140458,1.70667 2.207424,0 3.163215,-1.70667 0.955792,-1.73333 0.955792,-4.72001 0,-3.01334 -0.955792,-4.72001 -0.955791,-1.706674 -3.140458,-1.706674 -2.184667,0 -3.163215,1.706674 -0.978549,1.70667 -0.978549,4.72001 z m 21.195235,-9.493359 q 3.322514,0 4.892743,1.413337 1.592986,1.413337 1.592986,4.293342 0,1.30667 -0.432381,2.29334 -0.409625,0.96001 -1.115091,1.65334 -0.682708,0.66667 -1.479202,1.09334 l 4.778959,8.29336 h -3.823167 l -3.868681,-7.30669 h -1.843312 v 7.30669 H 76.524819 V 95.977971 Z m -0.250327,3.306676 h -1.046819 v 5.146683 h 1.11509 q 1.706771,0 2.434993,-0.66667 0.750979,-0.66667 0.750979,-1.97334 0,-1.36 -0.796493,-1.920005 -0.773735,-0.586668 -2.45775,-0.586668 z"
     id="text2"
     style="font-weight:bold;font-size:24.6344px;line-height:1.1;font-family:'Noto Sans';-inkscape-font-specification:'Noto Sans, Bold';text-align:center;letter-spacing:1.33949px;text-anchor:middle;fill:#e74c3c;stroke-width:2.79318;stroke-linecap:round;stroke-miterlimit:5.5"
     aria-label="ERROR" />
</svg>
