<?xml version="1.0" encoding="UTF-8" standalone="no"?>
<svg
   height="128"
   version="1.1"
   width="100.17392"
   id="svg4"
   xmlns="http://www.w3.org/2000/svg"
   xmlns:svg="http://www.w3.org/2000/svg">
  <defs
     id="defs4" />
  <path
     d="M 11.130435,5.5652174 C 4.983096,5.5652174 -2.2155762e-8,10.573913 -2.2155762e-8,16.695652 V 116.86957 C -2.2155762e-8,122.99131 4.983096,128 11.130435,128 h 77.913042 c 6.14957,0 11.130443,-5.00869 11.130443,-11.13043 V 38.956521 L 66.782609,5.5652174 Z"
     fill="#95a5a6"
     id="path1"
     style="stroke-width:5.56522" />
  <path
     d="M 11.130435,0 C 4.983096,0 -2.2155762e-8,5.0086956 -2.2155762e-8,11.130434 V 111.30435 C -2.2155762e-8,117.42609 4.983096,122.43478 11.130435,122.43478 h 77.913042 c 6.14957,0 11.130443,-5.00869 11.130443,-11.13043 V 33.391304 L 66.782609,0 Z"
     fill="#bdc3c7"
     id="path2"
     style="stroke-width:5.56522" />
  <path
     d="M 9.3167973,115.28465 V 96.244648 h 2.7137337 v 15.706662 h 5.211807 v 3.33334 z m 21.7278507,0 -0.934531,-4.53334 h -4.672654 l -0.934531,4.53334 h -2.929395 l 4.52888,-19.120002 h 3.324774 l 4.546852,19.120002 z m -2.516045,-12.34667 q -0.08986,-0.45333 -0.233633,-1.14667 -0.143773,-0.69333 -0.287548,-1.41333 -0.143773,-0.719999 -0.233632,-1.253332 -0.08986,0.533333 -0.251605,1.333332 -0.143773,0.77333 -0.287548,1.49333 -0.125802,0.69334 -0.197689,0.98667 l -0.916559,4.42667 h 3.342745 z m 14.467271,12.34667 H 40.28214 V 99.604648 h -3.486519 v -3.36 h 9.686772 v 3.36 h -3.486519 z m 16.569959,0 H 52.179445 V 96.244648 h 7.386388 v 3.306666 h -4.672654 v 4.186666 h 4.349162 v 3.30667 h -4.349162 v 4.90666 h 4.672654 z m 17.77405,0 h -3.450578 l -5.589214,-14.4 h -0.07191 q 0.03596,1.36 0.07191,2.72 0.05394,1.36 0.08986,2.72 v 8.96 H 65.963763 V 96.244648 h 3.432601 l 5.571244,14.266662 h 0.05394 q -0.01798,-1.33333 -0.05394,-2.64 -0.03596,-1.30666 -0.07191,-2.61333 v -9.013332 h 2.444165 z m 11.897292,0 H 86.523439 V 99.604648 H 83.03692 v -3.36 h 9.686774 v 3.36 h -3.486519 z"
     id="text1"
     style="font-weight:bold;font-size:21.8917px;line-height:2.8;font-family:'Noto Sans';-inkscape-font-specification:'Noto Sans, Bold';text-align:center;letter-spacing:4.53158px;text-anchor:middle;fill:#95a5a6;stroke-width:2.48221;stroke-linecap:round;stroke-miterlimit:5.5"
     aria-label="LATENT" />
  <g
     id="text3"
     style="font-weight:bold;font-size:26.6667px;line-height:1.1;font-family:'Noto Sans';-inkscape-font-specification:'Noto Sans, Bold';text-align:center;letter-spacing:1.45px;text-anchor:middle;fill:#ff4724;stroke-width:3.02362;stroke-linecap:round;stroke-miterlimit:5.5"
     transform="rotate(-15,-6.9564895,52.840031)"
     aria-label="{[0.],&#10;[1],}">
    <path
       d="m 24.684804,66.875589 q -2.266669,0 -3.520004,-0.373334 Q 19.938132,66.128922 19.458131,65.328921 18.97813,64.52892 18.97813,63.248918 v -4.106672 q 0,-1.253335 -0.853334,-1.786669 -0.853334,-0.533334 -2.480003,-0.533334 v -3.120004 q 1.626669,0 2.480003,-0.533334 0.853334,-0.533334 0.853334,-1.786669 v -4.133338 q 0,-1.280002 0.480001,-2.080003 0.480001,-0.800001 1.706669,-1.173335 1.253335,-0.373334 3.520004,-0.373334 v 2.933337 q -1.040001,0.02667 -1.653335,0.373334 -0.613334,0.346667 -0.613334,1.466669 v 3.893338 q 0,2.42667 -3.040004,2.880004 v 0.16 q 3.040004,0.453334 3.040004,2.880004 v 3.893338 q 0,1.120001 0.613334,1.466668 0.613334,0.346667 1.653335,0.373334 z m 10.676654,0 H 29.068117 V 43.622226 h 6.293341 v 2.746671 h -2.90667 v 17.760022 h 2.90667 z M 51.744793,53.142238 q 0,3.066671 -0.666667,5.25334 -0.640001,2.18667 -2.106669,3.360005 -1.440002,1.173335 -3.893339,1.173335 -3.440004,0 -5.040006,-2.58667 -1.600002,-2.613337 -1.600002,-7.20001 0,-3.093337 0.640001,-5.280006 0.640001,-2.18667 2.106669,-3.360004 1.466669,-1.173335 3.893338,-1.173335 3.413338,0 5.040007,2.58667 1.626668,2.58667 1.626668,7.226675 z m -9.306678,0 q 0,3.253338 0.560001,4.906673 0.56,1.626669 2.080002,1.626669 1.493336,0 2.080003,-1.626669 0.586667,-1.626668 0.586667,-4.906673 0,-3.253337 -0.586667,-4.906672 -0.586667,-1.653336 -2.080003,-1.653336 -1.520002,0 -2.080002,1.653336 -0.560001,1.653335 -0.560001,4.906672 z m 13.263363,7.653343 q 0,-1.226668 0.666667,-1.706668 0.666668,-0.506668 1.626669,-0.506668 0.933335,0 1.600002,0.506668 0.666668,0.48 0.666668,1.706668 0,1.173335 -0.666668,1.706669 -0.666667,0.506668 -1.600002,0.506668 -0.960001,0 -1.626669,-0.506668 -0.666667,-0.533334 -0.666667,-1.706669 z m 8.196672,3.333338 h 2.906671 V 46.368897 H 63.89815 v -2.746671 h 6.293342 V 66.875589 H 63.89815 Z m 15.583335,-4.266672 q -0.346667,1.413335 -0.986668,3.093337 -0.640001,1.680002 -1.306669,3.146671 h -2.853336 q 0.373333,-1.573335 0.746667,-3.360004 0.373334,-1.786669 0.560001,-3.173338 h 3.653338 z"
       id="path6" />
    <path
       d="M 28.654806,96.20896 H 22.361464 V 72.955597 h 6.293342 v 2.746671 H 25.748135 V 93.46229 h 2.906671 z M 41.784803,91.995622 H 37.758132 V 80.982274 q 0,-0.693334 0.02667,-1.813335 0.05333,-1.120002 0.08,-1.973336 -0.133333,0.16 -0.586667,0.586667 -0.426667,0.400001 -0.800001,0.720001 l -2.186669,1.760002 -1.94667,-2.426669 6.133342,-4.880007 h 3.30667 z m 6.356688,1.466668 h 2.90667 V 75.702268 h -2.90667 v -2.746671 h 6.293341 V 96.20896 h -6.293341 z m 15.583332,-4.266672 q -0.346667,1.413335 -0.986668,3.093337 -0.64,1.680002 -1.306668,3.146671 H 58.57815 q 0.373334,-1.573335 0.746668,-3.360004 0.373333,-1.786669 0.56,-3.173338 h 3.653338 z m 4.143334,4.080005 q 1.040002,-0.02667 1.653336,-0.373334 0.613334,-0.346667 0.613334,-1.466668 v -3.893338 q 0,-2.42667 3.040004,-2.880004 v -0.16 q -3.040004,-0.453334 -3.040004,-2.880004 v -3.893338 q 0,-1.120002 -0.613334,-1.466669 -0.613334,-0.346667 -1.653336,-0.373333 v -2.933338 q 2.293336,0 3.520005,0.373334 1.226668,0.373334 1.706669,1.173335 0.48,0.800001 0.48,2.080003 v 4.133338 q 0,1.253335 0.853335,1.786669 0.853334,0.533334 2.480003,0.533334 v 3.120004 q -1.626669,0 -2.480003,0.533334 -0.853335,0.533334 -0.853335,1.786669 v 4.106672 q 0,1.280002 -0.48,2.080003 -0.480001,0.800001 -1.706669,1.173334 -1.226669,0.373334 -3.520005,0.373334 z"
       id="path7" />
  </g>
  <path
     d="M 100.17392,33.391304 66.782609,0 v 22.260869 c 0,6.121739 4.98087,11.130435 11.130435,11.130435 z"
     fill="#95a5a6"
     id="path4"
     style="stroke-width:5.56522" />
</svg>
