<?xml version="1.0" encoding="UTF-8" standalone="no"?>
<svg
   height="128"
   version="1.1"
   width="100.17392"
   id="svg4"
   xmlns="http://www.w3.org/2000/svg"
   xmlns:svg="http://www.w3.org/2000/svg">
  <defs
     id="defs4" />
  <path
     d="M 11.130435,5.5652174 C 4.983096,5.5652174 -2.2155762e-8,10.573913 -2.2155762e-8,16.695652 V 116.86957 C -2.2155762e-8,122.99131 4.983096,128 11.130435,128 h 77.913042 c 6.14957,0 11.130443,-5.00869 11.130443,-11.13043 V 38.956521 L 66.782609,5.5652174 Z"
     fill="#95a5a6"
     id="path1"
     style="stroke-width:5.56522" />
  <path
     d="M 11.130435,0 C 4.983096,0 -2.2155762e-8,5.0086956 -2.2155762e-8,11.130434 V 111.30435 C -2.2155762e-8,117.42609 4.983096,122.43478 11.130435,122.43478 h 77.913042 c 6.14957,0 11.130443,-5.00869 11.130443,-11.13043 V 33.391304 L 66.782609,0 Z"
     fill="#bdc3c7"
     id="path2"
     style="stroke-width:5.56522" />
  <path
     d="M 100.17392,33.391304 66.782609,0 v 22.260869 c 0,6.121739 4.98087,11.130435 11.130435,11.130435 z"
     fill="#95a5a6"
     id="path4"
     style="stroke-width:5.56522" />
  <path
     d="M 29.966898,115.28465 H 25.940226 V 99.604626 h -5.17334 v -3.360005 h 14.373352 v 3.360005 h -5.17334 z m 29.013375,0 h -4.613339 l -4.426673,-7.20001 -4.426672,7.20001 h -4.320005 l 6.320008,-9.81335 -5.920008,-9.226679 h 4.453339 l 4.106672,6.853349 4.026672,-6.853349 h 4.346672 l -5.973341,9.440019 z m 15.253341,0 H 70.206942 V 99.604626 h -5.17334 v -3.360005 h 14.373352 v 3.360005 h -5.17334 z"
     id="text1"
     style="font-weight:bold;font-size:26.6667px;line-height:2.8;font-family:'Noto Sans';-inkscape-font-specification:'Noto Sans, Bold';text-align:center;letter-spacing:5.52px;text-anchor:middle;fill:#95a5a6;stroke-width:3.02362;stroke-linecap:round;stroke-miterlimit:5.5"
     aria-label="TXT" />
  <path
     style="fill:none;fill-opacity:1;stroke:#3498db;stroke-width:3.63652;stroke-linecap:round;stroke-linejoin:round;stroke-miterlimit:5.5;stroke-dasharray:none;stroke-dashoffset:0;stroke-opacity:1"
     d="M 19.248785,44.75758 H 81.890783"
     id="path3-0" />
  <path
     style="fill:none;fill-opacity:1;stroke:#3498db;stroke-width:3.63652;stroke-linecap:round;stroke-linejoin:round;stroke-miterlimit:5.5;stroke-dasharray:none;stroke-dashoffset:0;stroke-opacity:1"
     d="M 19.248785,56.381924 H 81.890783"
     id="path3-9" />
  <path
     style="fill:none;fill-opacity:1;stroke:#3498db;stroke-width:3.63652;stroke-linecap:round;stroke-linejoin:round;stroke-miterlimit:5.5;stroke-dasharray:none;stroke-dashoffset:0;stroke-opacity:1"
     d="M 19.248785,68.006266 H 81.890783"
     id="path3-6" />
  <path
     style="fill:none;fill-opacity:1;stroke:#3498db;stroke-width:3.63652;stroke-linecap:round;stroke-linejoin:round;stroke-miterlimit:5.5;stroke-dasharray:none;stroke-dashoffset:0;stroke-opacity:1"
     d="M 19.248785,79.63061 H 81.890783"
     id="path3-6-3" />
  <path
     style="fill:none;fill-opacity:1;stroke:#3498db;stroke-width:3.63652;stroke-linecap:round;stroke-linejoin:round;stroke-miterlimit:5.5;stroke-dasharray:none;stroke-dashoffset:0;stroke-opacity:1"
     d="M 19.248785,33.133236 H 65.921239"
     id="path3-8" />
</svg>
